<?xml version="1.0" encoding="UTF-8"?><svg id="Layer_1" xmlns="http://www.w3.org/2000/svg" viewBox="0 0 549.4 120.86"><defs><style>.cls-1{fill:#150140;}.cls-2{fill:#9373d9;}</style></defs><rect class="cls-1" y="4.84" width="15.06" height="76.27"/><polygon class="cls-1" points="76.95 55.29 45.21 4.84 26.71 4.84 26.71 81.11 41.56 81.11 41.56 27 76.2 81.11 91.79 81.11 91.79 4.84 76.95 4.84 76.95 55.29"/><polygon class="cls-1" points="100.37 18.93 124.47 18.93 124.47 81.11 139.42 81.11 139.42 18.93 163.52 18.93 163.52 4.84 100.37 4.84 100.37 18.93"/><polygon class="cls-1" points="172.1 81.11 219.86 81.11 219.86 67.13 186.94 67.13 186.94 49.48 216.74 49.48 216.74 36.25 186.94 36.25 186.94 18.83 219.86 18.83 219.86 4.84 172.1 4.84 172.1 81.11"/><path class="cls-1" d="M263.7,17.1c12.37,0,18.72,7.85,20.65,14.63l14.2-5.06c-3.76-11.73-14.84-23.45-34.85-23.45s-39.05,15.17-39.05,39.8,17.53,39.69,38.08,39.69c11.51,0,19.04-5.16,22.48-10.33l.97,8.71h12.05v-39.69h-38.08v12.91h24.1c-.86,5.38-6.35,14.85-20.44,14.85-12.8,0-24.1-8.93-24.1-26.14,0-18.07,12.48-25.93,23.99-25.93Z"/><path class="cls-1" d="M363.15,28.29c0-13.23-9.47-23.45-24.31-23.45h-29.8v76.27h14.95v-29.37h7.75l14.95,29.37h16.57l-16.35-31.2c10-2.91,16.24-10.97,16.24-21.62ZM336.04,38.94h-12.05v-21.19h12.05c7.53,0,11.94,4.2,11.94,10.65s-4.41,10.54-11.94,10.54Z"/><rect class="cls-1" x="372.67" y="4.84" width="15.06" height="76.27"/><path class="cls-1" d="M435.79,3.8c-20.38,0-38.64,14.97-38.64,39.28s18.26,39.17,38.64,39.17c5.24,0,10.32-.98,15-2.84l-5.16-13.41c-3.11,1.35-6.48,2.02-9.84,2.02-11.57,0-23.46-8.07-23.46-25.05s11.89-25.05,23.46-25.05,23.57,8.07,23.57,25.05c0,4.96-1.02,9.15-2.74,12.61l6.22,16.17c7.13-6.77,11.7-16.56,11.7-28.67,0-24.31-18.26-39.28-38.75-39.28Z"/><polygon class="cls-1" points="519.42 0 503.65 0 520.82 47.02 509.32 47.02 503.97 61.33 526.04 61.33 532.08 77.88 549.4 77.88 519.42 0"/><polygon class="cls-2" points="503.65 0 465.69 98.63 448.17 53.12 432.23 53.12 457.14 120.86 474.25 120.86 519.42 0 503.65 0"/></svg>